PathFileType	4	(X/Y/Z)	Patient4_TMGait_0pt7_02_right_31.trc.trc
DataRate	CameraRate	NumFrames	NumMarkers	Units	OrigDataRate	OrigDataStartFrame	OrigNumFrames
83.832335329341	83.832335329341	4	33	mm	83.832335329341	36	       141
Frame#	Time	Sacral			L.Shoulder			Chest			R.Shoulder			Neck			R.ASIS			L.ASIS			R.Thigh.Superior			R.Thigh.Lateral			R.Thigh.Inferior			R.Patella			L.Thigh.Superior			L.Thigh.Lateral			L.Thigh.Inferior			L.Patella			L.Shank.Superior			L.Shank.Lateral			L.Shank.Inferior			R.Shank.Superior			R.Shank.Lateral			R.Shank.Inferior			R.Heel			R.Midfoot.Superior			R.Midfoot.Lateral			R.Toe			L.Heel			L.Midfoot.Lateral			L.Midfoot.Superior			L.Toe			L.Elbow			L.Wrist			R.Elbow			R.Wrist			
		X1	Y1	Z1	X2	Y2	Z2	X3	Y3	Z3	X4	Y4	Z4	X5	Y5	Z5	X6	Y6	Z6	X7	Y7	Z7	X8	Y8	Z8	X9	Y9	Z9	X10	Y10	Z10	X11	Y11	Z11	X12	Y12	Z12	X13	Y13	Z13	X14	Y14	Z14	X15	Y15	Z15	X16	Y16	Z16	X17	Y17	Z17	X18	Y18	Z18	X19	Y19	Z19	X20	Y20	Z20	X21	Y21	Z21	X22	Y22	Z22	X23	Y23	Z23	X24	Y24	Z24	X25	Y25	Z25	X26	Y26	Z26	X27	Y27	Z27	X28	Y28	Z28	X29	Y29	Z29	X30	Y30	Z30	X31	Y31	Z31	X32	Y32	Z32	X33	Y33	Z33	

36	35.247500000000	839.025695563399	991.934655389109	504.515302588743	1041.866140924831	1413.184712533345	320.949865388626	1135.412259695786	1339.328830437009	484.444006694729	1051.498385759714	1425.677823001636	653.696079738530	1046.872946107554	1475.594209847785	471.968247402739	1065.902982219687	925.212426998721	628.136670575545	1056.249180004905	951.125230070773	350.840380569833	1143.282099755461	752.547534663664	588.818933298745	1087.362143317296	629.926017903408	650.187952967459	1173.276957313022	593.394921037076	568.869113348438	1194.365551453307	502.455753732883	576.337902534780	1073.629646435693	724.316399763212	371.274708186790	969.384488259752	621.527205388500	305.333210378948	1043.978604863244	526.931503102448	361.741688790413	1028.971468490562	445.020834501104	358.540262642888	962.273357643669	390.210335520960	351.035826360799	824.747636341424	340.681318222025	300.263320535476	815.597080453084	212.033811343126	357.286925495911	1169.542326153554	410.608308870746	584.503986448930	1106.741685840661	303.201327174429	648.840614056949	1152.767282108335	210.171502689713	586.191366805627	1026.638611089526	43.828082487894	561.035015822875	1197.969351402846	97.709369989639	593.297660153453	1111.124873240200	37.649263573491	633.398534210937	1319.036982076573	45.451344115113	619.109762292612	629.003910442286	127.583853971463	391.981519214866	693.493523729400	87.857120894978	315.281174701171	794.065376903110	112.703843763574	338.152469558982	887.994072636467	32.749349923495	317.647905912839	1056.035547887087	1078.204604989640	177.785966597426	1300.584912107851	1060.165252567397	246.213106186149	914.761737951659	1113.863936617520	781.653895051949	909.357542721844	851.165460724559	789.912579388358	
37	35.259428571429	839.807261209505	993.939404761817	508.339826614968	1043.456679285036	1414.404382207621	323.195307451406	1137.412870223724	1340.626339268227	486.387767570961	1054.345633902908	1427.413879983414	655.776819676533	1048.940597596342	1476.924787296333	474.052806021569	1067.174659190866	926.660270599685	630.990806829284	1056.920163429050	952.549723404162	353.931477086789	1142.617917508281	751.846882826309	592.745647206372	1084.328796266464	629.980341432581	652.892615573096	1170.320066503089	592.667150060411	571.881627479053	1190.191071970500	501.605029924868	578.688534150668	1078.671466838614	726.833124509176	373.573692339121	978.247580841463	621.767770086171	306.930345751060	1055.877625223922	528.471717215832	362.874307538181	1041.639761984539	445.314590050418	358.675724056219	972.715638520872	391.116428854508	351.313867709089	833.053574174129	347.146292681305	301.087462670498	819.769646086031	218.380148246264	356.858066381732	1164.430214537631	410.076687045419	586.441770648197	1100.531114534993	303.007403348068	650.109075703261	1145.735569419918	209.824894766452	587.089090588346	1018.435985353126	43.867641055815	561.208909679902	1189.698885824290	97.693927433340	593.613752782003	1102.874353188083	37.660111225904	633.552380656581	1310.804780978351	45.180598008239	619.441919908327	630.066477816103	144.235307172395	391.702045921949	691.732465513966	99.858684737180	315.093740381997	793.829696408600	117.855845004126	337.595250355811	880.933995203600	31.437180653096	317.641297819065	1049.999295986861	1077.701499658079	182.432072355398	1294.242020847562	1044.630488640829	247.819872135309	920.178591232199	1114.546977917797	784.682330099855	920.902718193750	851.759545689029	790.663313376605	
38	35.271357142857	840.406379508023	995.882392349586	512.028098670902	1044.563796682622	1415.572358639713	325.381182812472	1139.210050566614	1341.833536332559	488.188968013231	1057.210210536565	1428.971677479504	657.784327676737	1050.714663445087	1478.164387517735	476.123971866397	1068.234219916622	927.979485646806	633.590636424380	1057.305179535124	953.764915926075	356.813835480901	1141.504341319085	750.931859116318	596.801107386090	1080.789467469533	629.994713552973	655.682249350807	1166.852543750142	591.867552712667	575.012021718296	1185.477957945217	500.731990717054	581.287342537053	1083.820804209937	729.601462306061	375.846057720896	987.515562501232	622.274745741346	308.340189060140	1068.043706205823	530.472878044788	364.068592357678	1054.708769425943	446.123884173638	359.079407865391	983.797732702412	392.404667282885	351.767834454818	842.338851732187	353.833770079620	301.896131406237	824.926222318437	225.186995199831	356.665654530563	1158.885074443558	409.536247098356	588.554185185051	1093.921988068196	302.729230862826	651.442774739359	1138.539249214431	209.485520122614	588.111250043662	1010.198987017592	43.916362221496	561.368221414092	1181.444036058580	97.599171956595	593.969567765110	1094.583084013427	37.627592491653	633.691930779046	1302.553931276437	44.774419759192	619.772488858338	632.662420082558	161.335537205596	391.597969343945	691.367401212642	112.707127922258	315.014312983418	794.631807139421	123.828250499684	337.291410720708	874.763382889333	30.396262781677	317.592927305645	1044.108385911797	1077.277378092566	187.281871599425	1287.006119055471	1027.835426450937	249.146941415801	925.959844700657	1114.987314354152	787.858550449003	933.557527409514	852.284022798905	791.345121740362	
39	35.283285714286	840.835023709152	997.726953428214	515.534520263628	1045.209120832156	1416.672119405457	327.485496715204	1140.797586358090	1342.916912896581	489.839608732831	1060.073774002349	1430.316740900163	659.710582856710	1052.215291521619	1479.302305423373	478.166922646626	1069.076289628510	929.192244119293	635.958529548957	1057.353091469552	954.719865997222	359.480292662526	1140.016599780065	749.939512795861	600.808735864677	1076.954469545732	630.046255545074	658.497260514388	1163.021405729208	591.068206570043	578.151468189823	1180.383239604611	499.883747488461	584.060187355553	1088.950559034498	732.643267190563	378.118370517578	996.998518305963	623.125885720458	309.588959619084	1080.277363166343	533.002600109479	365.313759235835	1068.017516476824	447.512888534083	359.709704508793	995.367453321629	394.117086867458	352.383346481391	852.443159638403	360.654289500236	302.705489412479	831.026956844267	232.330265910528	356.728270192846	1153.045889339067	409.020853095505	590.778191537470	1087.050665912615	302.426834083145	652.832751948606	1131.246579444243	209.178367793249	589.224244456933	1001.932871069155	43.994614679652	561.524520224834	1173.217100931848	97.452425243914	594.359106273717	1086.260625874397	37.574039802398	633.825592574769	1294.291010572549	44.260303159998	620.094328339127	636.780709984504	178.355760323033	391.724674497423	692.514262590719	126.003428850494	315.088260775723	796.581126903319	130.520162536009	337.246875924758	869.851453624166	29.860072048014	317.499365726420	1038.407392746355	1076.866483317902	192.319343488182	1278.680250789527	1009.965469277405	250.166976700406	932.089715152022	1115.147002868914	791.137346474761	947.187304278090	852.752854133331	792.037787933735	
